<?xml version="1.0" encoding="UTF-8"?>
<svg id="Livello_2" data-name="Livello 2" xmlns="http://www.w3.org/2000/svg" viewBox="0 0 364.12 73.02">
  <defs>
    <style>
      .cls-1 {
        stroke: #f6a60a;
      }

      .cls-1, .cls-2, .cls-3, .cls-4, .cls-5, .cls-6, .cls-7, .cls-8, .cls-9 {
        fill: none;
        stroke-linecap: round;
        stroke-linejoin: round;
        stroke-width: 1.2px;
      }

      .cls-2 {
        stroke: #c39806;
      }

      .cls-3 {
        stroke: #78b62f;
      }

      .cls-4 {
        stroke: #b41f1d;
      }

      .cls-5 {
        stroke: #e10f1a;
      }

      .cls-6 {
        stroke: #71b52e;
      }

      .cls-7 {
        stroke: #316cb4;
      }

      .cls-8 {
        stroke: #e6358a;
      }

      .cls-9 {
        stroke: #0c72b7;
      }

      .cls-10 {
        fill: #ed6f04;
      }
    </style>
  </defs>
  <g id="Livello_1-2" data-name="Livello 1">
    <g>
      <g>
        <path class="cls-10" d="M12.84,20.55c-1.86.38-3.54.57-5.02.57s-2.68-.2-3.6-.61c-.91-.41-1.62-1.04-2.12-1.9-.5-.86-.84-1.85-1.03-2.96-.19-1.11-.29-2.5-.29-4.17s.1-3.06.29-4.19c.19-1.13.53-2.13,1.03-3,.5-.87,1.2-1.5,2.1-1.9.9-.4,2.08-.6,3.53-.6s3.15.2,5.1.6l-.08,1.76c-1.83-.33-3.46-.49-4.89-.49-1.99,0-3.31.59-3.95,1.78-.64,1.19-.96,3.21-.96,6.07,0,1.43.06,2.58.18,3.45.12.87.35,1.65.69,2.35.34.7.85,1.19,1.51,1.49.66.3,1.63.45,2.91.45s2.78-.16,4.52-.49l.08,1.79Z"/>
        <path class="cls-10" d="M15.04,14.04c0-2.48.44-4.27,1.33-5.38.89-1.1,2.38-1.66,4.49-1.66s3.6.55,4.48,1.66c.88,1.1,1.32,2.9,1.32,5.38s-.42,4.28-1.25,5.4c-.83,1.12-2.35,1.68-4.56,1.68s-3.73-.56-4.56-1.68c-.83-1.12-1.25-2.92-1.25-5.4ZM17.13,13.99c0,1.98.24,3.37.72,4.17.48.8,1.48,1.19,3.01,1.19s2.53-.39,3-1.18c.47-.79.71-2.18.71-4.17s-.26-3.36-.79-4.11c-.53-.75-1.5-1.13-2.92-1.13s-2.4.38-2.93,1.13c-.53.75-.8,2.12-.8,4.1Z"/>
        <path class="cls-10" d="M34.24,8.82c-1.97,0-2.96.69-2.96,2.06,0,.63.23,1.08.68,1.34.45.26,1.48.53,3.1.81,1.61.28,2.75.67,3.42,1.18.67.51,1,1.46,1,2.85s-.45,2.42-1.34,3.07-2.2.98-3.92.98c-1.12,0-2.44-.13-3.96-.38l-.81-.14.11-1.76c2.06.31,3.62.46,4.67.46s1.85-.17,2.4-.5c.55-.33.83-.9.83-1.68s-.24-1.32-.71-1.6c-.47-.28-1.5-.55-3.1-.8-1.59-.25-2.72-.62-3.39-1.11-.67-.49-1-1.39-1-2.72s.47-2.3,1.4-2.93c.93-.63,2.09-.95,3.49-.95,1.1,0,2.49.13,4.15.38l.76.14-.05,1.74c-2.01-.29-3.59-.43-4.75-.43Z"/>
        <path class="cls-10" d="M51.83,19.17l.79-.08.05,1.6c-2.06.29-3.83.43-5.29.43-1.95,0-3.34-.57-4.15-1.7-.81-1.13-1.22-2.89-1.22-5.28,0-4.76,1.89-7.14,5.67-7.14,1.83,0,3.19.51,4.1,1.53.9,1.02,1.36,2.63,1.36,4.82l-.11,1.55h-8.96c0,1.5.27,2.62.81,3.34.54.72,1.49,1.09,2.84,1.09s2.72-.05,4.11-.16ZM51.1,13.27c0-1.67-.27-2.84-.8-3.53-.53-.69-1.4-1.03-2.61-1.03s-2.11.36-2.72,1.09c-.61.72-.92,1.88-.94,3.48h7.06Z"/>
        <path class="cls-10" d="M58.35,20.85h-2.04V7.27h2.01v.95c1.47-.81,2.87-1.22,4.21-1.22,1.81,0,3.03.49,3.65,1.47.62.98.94,2.72.94,5.21v7.17h-2.01v-7.11c0-1.88-.19-3.17-.56-3.87-.37-.7-1.16-1.05-2.38-1.05-.58,0-1.19.09-1.83.26-.64.17-1.14.34-1.48.5l-.52.24v11.02Z"/>
        <path class="cls-10" d="M70.08,9.09v-1.82h10.07v1.82l-7.6,9.94h7.6v1.82h-10.07v-1.82l7.6-9.94h-7.6Z"/>
        <path class="cls-10" d="M92.83,11.37v6.95c.05.67.58,1.07,1.57,1.19l-.08,1.6c-1.43,0-2.51-.36-3.23-1.09-1.63.72-3.26,1.09-4.89,1.09-1.25,0-2.2-.35-2.85-1.06-.65-.71-.98-1.72-.98-3.04s.33-2.29,1-2.92c.67-.62,1.72-1.01,3.15-1.15l4.26-.41v-1.17c0-.92-.2-1.58-.6-1.98-.4-.4-.94-.6-1.63-.6-1.45,0-2.95.09-4.51.27l-.84.08-.08-1.55c1.99-.4,3.76-.6,5.29-.6s2.66.35,3.35,1.06c.7.71,1.05,1.81,1.05,3.31ZM84.47,16.91c0,1.67.69,2.5,2.06,2.5,1.23,0,2.44-.21,3.64-.62l.62-.22v-4.48l-4.02.38c-.81.07-1.4.31-1.76.71-.36.4-.54.98-.54,1.74Z"/>
        <path class="cls-10" d="M13.97,43.77c-1.15,1.53-3.13,2.29-5.93,2.29s-4.78-.76-5.93-2.29c-1.15-1.53-1.72-3.92-1.72-7.18s.57-5.68,1.72-7.26c1.15-1.58,3.13-2.38,5.93-2.38s4.78.79,5.93,2.38c1.15,1.58,1.72,4,1.72,7.26s-.57,5.65-1.72,7.18ZM5.04,41.38c.53.95,1.53,1.43,3,1.43s2.47-.48,3-1.43c.53-.95.8-2.54.8-4.78s-.27-3.86-.81-4.87c-.54-1.01-1.54-1.52-2.99-1.52s-2.44.51-2.99,1.52c-.54,1.01-.81,2.64-.81,4.87s.27,3.83.8,4.78Z"/>
        <path class="cls-10" d="M18.57,51.44v-19.28h3.61v.73c1.18-.71,2.21-1.06,3.1-1.06,1.83,0,3.18.55,4.05,1.64.87,1.1,1.3,2.96,1.3,5.58s-.48,4.45-1.44,5.47c-.96,1.02-2.53,1.53-4.72,1.53-.6,0-1.24-.05-1.93-.16l-.33-.05v5.59h-3.64ZM24.57,35.1c-.67,0-1.35.14-2.04.41l-.33.14v7.11c.81.11,1.48.16,1.98.16,1.05,0,1.77-.31,2.16-.92.39-.62.58-1.67.58-3.15,0-2.5-.79-3.75-2.36-3.75Z"/>
        <path class="cls-10" d="M36.99,42.3c.43.37,1.04.56,1.83.56,1.68,0,3.19-.05,4.51-.16l.76-.08.05,2.69c-2.08.51-3.96.76-5.65.76-2.05,0-3.53-.54-4.45-1.63-.92-1.09-1.38-2.85-1.38-5.29,0-4.87,2-7.3,6-7.3s5.92,2.05,5.92,6.14l-.27,2.53h-7.98c.02.83.24,1.43.67,1.81ZM41,37.73c0-1.09-.17-1.84-.52-2.27-.34-.43-.95-.64-1.81-.64s-1.47.22-1.82.67c-.35.44-.54,1.19-.56,2.24h4.7Z"/>
        <path class="cls-10" d="M50.83,45.74h-3.64v-13.58h3.61v.76c1.23-.72,2.36-1.09,3.39-1.09,1.81,0,3.06.53,3.75,1.6.69,1.07,1.03,2.72,1.03,4.94v7.36h-3.64v-7.25c0-1.16-.14-2.01-.41-2.57-.27-.55-.81-.83-1.63-.83-.74,0-1.46.13-2.14.38l-.33.11v10.15Z"/>
        <path class="cls-10" d="M0,70.63v-18.19h6.3v18.19H0Z"/>
        <path class="cls-10" d="M13.96,70.63h-6.08v-13.71h6.05v.71c1.14-.71,2.14-1.06,2.99-1.06,1.95,0,3.32.53,4.1,1.59.78,1.06,1.17,2.93,1.17,5.61v6.87h-6.08v-6.46c0-1.57-.33-2.36-.98-2.36l-1.17.19v8.63Z"/>
        <path class="cls-10" d="M30.03,56.56c1.25,0,2.63.18,4.15.54l.76.16-.19,4.81c-1.86-.14-3.11-.22-3.75-.22s-1.06.14-1.29.42c-.23.28-.34.78-.34,1.49s.11,1.21.34,1.48c.23.27.63.41,1.21.41l3.88-.19.19,4.75c-1.74.51-3.39.76-4.97.76-2.61,0-4.39-.54-5.35-1.62-.96-1.08-1.44-2.96-1.44-5.65s.52-4.55,1.55-5.59c1.03-1.04,2.78-1.56,5.24-1.56Z"/>
        <path class="cls-10" d="M44.26,56.92h6.08v13.71h-6.03v-.65c-1.16.67-2.19,1-3.1,1-1.92,0-3.26-.56-4.02-1.67-.76-1.11-1.14-2.88-1.14-5.31v-7.09h6.08v6.68c0,.81.07,1.38.22,1.68.14.31.38.46.71.46l1.19-.16v-8.66Z"/>
        <path class="cls-10" d="M60.74,56.56c3.58,0,5.38,2.33,5.38,6.98,0,2.79-.53,4.72-1.6,5.81-1.07,1.09-3.01,1.63-5.84,1.63-1.16,0-3.03-.15-5.62-.46l-1.22-.16v-18.46h6.08v5.1c1.19-.29,2.14-.43,2.82-.43ZM58.78,66.07c.8,0,1.19-.8,1.19-2.39,0-.85-.09-1.43-.27-1.74-.18-.31-.49-.46-.92-.46l-.87.19v4.32c.24.05.52.08.87.08Z"/>
        <path class="cls-10" d="M80.61,61.34v5.16c.16.13.38.23.65.3l-.08,3.86c-1.41.22-2.38.33-2.91.33s-1-.08-1.44-.23-.72-.31-.87-.48l-.22-.24c-1.12.63-2.48.95-4.09.95s-2.81-.37-3.62-1.1c-.81-.73-1.22-1.91-1.22-3.54s.46-2.72,1.38-3.27c.92-.55,2.38-.86,4.37-.94l1.95-.08v-.24c0-.34-.38-.52-1.14-.52-1.65,0-3.29.09-4.94.27l-.9.08-.14-4.13c2.39-.63,4.57-.95,6.54-.95s3.67.31,4.81.92c1.23.65,1.85,1.94,1.85,3.86ZM73.5,66.8c.34,0,.69-.14,1.03-.41v-1l-.92.05c-.47.04-.71.27-.71.71s.2.65.6.65Z"/>
        <path class="cls-10" d="M88.92,61.83v2.82c0,.45.06.76.18.91.12.15.36.23.72.23l1.22-.03.08,4.72c-1.56.33-2.75.49-3.58.49-1.68,0-2.89-.35-3.61-1.05-.72-.7-1.09-1.99-1.09-3.87v-4.24h-1.06v-4.91h1.06v-2.72h6.08v2.72h2.2v4.91h-2.2Z"/>
        <path class="cls-10" d="M93.79,58.26c1.2-1.13,3.02-1.7,5.44-1.7s4.24.57,5.44,1.7c1.2,1.13,1.81,2.97,1.81,5.53s-.6,4.39-1.81,5.51c-1.2,1.12-3.02,1.68-5.44,1.68s-4.24-.56-5.44-1.68c-1.2-1.12-1.81-2.96-1.81-5.51s.6-4.39,1.81-5.53ZM98.37,65.58c.16.33.45.49.87.49s.71-.16.87-.49c.16-.33.24-.93.24-1.81s-.08-1.48-.24-1.81c-.16-.33-.45-.49-.87-.49s-.71.16-.87.49c-.16.33-.24.93-.24,1.81s.08,1.48.24,1.81Z"/>
        <path class="cls-10" d="M113.74,70.63h-6.08v-13.71h6.08v1.28c1.14-1.09,2.1-1.63,2.88-1.63v5.65c-.62,0-1.41.24-2.39.73l-.49.24v7.44Z"/>
      </g>
      <g>
        <rect class="cls-5" x="150.26" y="15.24" width="48.56" height="41.93"/>
        <polygon class="cls-4" points="198.83 57.16 165.99 42.53 165.99 .6 198.83 15.24 198.83 57.16"/>
        <polygon class="cls-2" points="198.83 57.16 158.75 69.05 158.75 27.12 198.83 15.24 198.83 57.16"/>
        <polygon class="cls-6" points="180.87 49.08 150.26 57.16 150.26 15.24 180.87 7.16 180.87 49.08"/>
        <polygon class="cls-1" points="181.16 72.42 150.26 57.16 150.26 15.24 181.16 30.49 181.16 72.42"/>
        <circle class="cls-4" cx="247.69" cy="36.51" r="35.57"/>
        <ellipse class="cls-3" cx="247.69" cy="36.51" rx="20.97" ry="35.57"/>
        <ellipse class="cls-5" cx="247.69" cy="36.51" rx="9.95" ry="35.57"/>
        <circle class="cls-4" cx="247.69" cy="36.2" r="35.57"/>
        <ellipse class="cls-9" cx="247.69" cy="36.2" rx="20.97" ry="35.57" transform="translate(46.95 185.74) rotate(-45)"/>
        <ellipse class="cls-1" cx="247.69" cy="36.2" rx="9.95" ry="35.57" transform="translate(46.95 185.74) rotate(-45)"/>
        <polygon class="cls-4" points="331.31 3.58 299.1 65.18 363.52 65.18 331.31 3.58"/>
        <polygon class="cls-4" points="331.31 3.58 335.36 46.41 363.52 65.18 331.31 3.58"/>
        <polygon class="cls-7" points="331.31 3.58 299.1 41.86 363.52 65.18 331.31 3.58"/>
        <polygon class="cls-8" points="331.31 3.58 299.1 65.18 335.36 46.41 331.31 3.58"/>
      </g>
    </g>
  </g>
</svg>