<svg width="302" height="80" viewBox="0 0 302 80" fill="none" xmlns="http://www.w3.org/2000/svg">
<path d="M54.5542 43.0427L54.4777 42.974V42.5113C53.9616 42.928 53.5133 43.156 52.9965 43.156C51.7355 43.156 51 42.218 51 40.8113C51 39.9853 51.2483 39.3593 51.6583 38.932C52.0597 38.5247 52.6429 38.2773 53.426 38.2773C53.8656 38.2773 54.2193 38.3633 54.4864 38.506V36.9493C54.4864 36.5893 54.4294 36.542 54.181 36.5133L53.818 36.4747V36.238L55.3179 36L55.385 36.0573V42.218C55.385 42.702 55.4233 42.7207 56.1011 42.7673V43.0433L54.5542 43.0427ZM54.4871 39.7587C54.4871 39.502 54.477 39.37 54.4012 39.208C54.2294 38.8187 53.8663 38.61 53.4173 38.61C52.4429 38.61 51.9939 39.4647 51.9939 40.6967C51.9939 41.7887 52.4335 42.642 53.312 42.642C53.8086 42.642 54.2294 42.4527 54.42 41.9607C54.477 41.7993 54.4871 41.6387 54.4871 41.428V39.7587Z" fill="#040404"/>
<path d="M57.5164 40.5453C57.497 41.5327 57.7359 42.6707 58.9211 42.6707C59.6761 42.6707 60.0385 42.216 60.3063 41.664L60.5928 41.8167C60.3344 42.5667 59.7895 43.144 58.7298 43.154C57.1722 43.1733 56.5225 42.252 56.5225 40.752C56.5225 39.33 57.2292 38.2766 58.7198 38.2766C60.468 38.2766 60.6492 39.624 60.6492 40.184C60.6492 40.4987 60.4673 40.5447 60.2673 40.5447L57.5164 40.5453ZM59.3311 40.1847C59.5989 40.1847 59.656 40.062 59.656 39.8827C59.656 39.512 59.5513 38.61 58.6634 38.61C57.6695 38.61 57.5258 39.7967 57.5258 40.1847H59.3311Z" fill="#040404"/>
<path d="M62.5795 42.218C62.5795 42.7013 62.6177 42.7207 63.2962 42.7667V43.0427H60.9648V42.7667C61.6527 42.7193 61.6816 42.6993 61.6816 42.218V36.9493C61.6816 36.5893 61.6245 36.542 61.3755 36.5133L61.0125 36.4747V36.238L62.5124 36L62.5795 36.0573V42.218Z" fill="#040404"/>
<path d="M65.0548 42.218C65.0548 42.7013 65.0931 42.7207 65.7709 42.7667V43.0427H63.4395V42.7667C64.1274 42.7193 64.1562 42.6993 64.1562 42.218V36.9493C64.1562 36.5893 64.0985 36.542 63.8502 36.5133L63.4871 36.4747V36.238L64.987 36L65.0542 36.0573L65.0548 42.218Z" fill="#040404"/>
<path d="M69.86 41.836C69.86 42.4333 70.0224 42.6133 70.1942 42.6533C70.3379 42.692 70.5479 42.672 70.6821 42.642L70.7392 42.872C70.3761 43.0527 69.9654 43.156 69.6124 43.156C69.2775 43.156 69.1245 42.9373 68.9916 42.5867C68.6856 42.7867 68.1601 43.136 67.5682 43.156C66.6702 43.156 66.1924 42.5207 66.1924 41.8087C66.1924 41.362 66.3931 40.888 67.081 40.68C67.836 40.442 68.7628 40.2047 69.001 39.9587V39.56C69.001 38.8007 68.5614 38.6107 68.189 38.6107C67.8071 38.6107 67.4152 38.8387 67.2051 39.5413C67.1568 39.702 67.0997 39.806 66.8991 39.806C66.7179 39.806 66.3649 39.664 66.3649 39.3607C66.3649 38.8387 67.2152 38.278 68.2943 38.278C69.7365 38.278 69.8614 38.99 69.8614 39.5413V41.836H69.86ZM68.9997 40.346C68.7896 40.478 68.2836 40.66 67.9011 40.8027C67.3662 41.002 67.1554 41.23 67.1554 41.6767C67.1554 42.2367 67.4427 42.6547 68.0353 42.6547C68.4077 42.6547 69.0003 42.454 69.0003 41.686L68.9997 40.346Z" fill="#040404"/>
<path d="M51.2935 27.8003C51.3003 25.2063 51.8345 20.761 47.6561 20.7503C43.4778 20.7397 43.9892 25.1877 43.9818 27.7803L43.9167 52.3117C43.91 54.907 43.3758 59.351 47.5541 59.3623C51.7318 59.373 51.2217 54.925 51.2278 52.331L51.2466 45.2257L70.4954 45.275L70.4403 66.3883C65.2815 70.599 56.994 72.875 48.9366 73.077C40.9531 73.2777 33.1991 71.4797 29.2543 67.763C23.7465 62.6357 23.988 55.965 24.0062 48.999L24.0639 26.913C24.0786 21.207 24.8397 15.6503 29.5502 11.8083C33.8863 8.2623 40.9779 6.7243 48.5125 7.0403C56.1215 7.35697 64.1728 9.74828 70.5772 13.9897L70.5216 35.451L51.2727 35.4017L51.2935 27.8003Z" fill="#A11A21"/>
<path d="M103.822 31.2967C103.822 38.1707 98.1527 39.888 89.9108 39.888C81.6696 39.888 76 38.17 76 31.2967V19.592C76 12.718 81.6689 11 89.9108 11C98.1527 11 103.822 12.7193 103.822 19.592V31.2967ZM87.6438 31.718C87.6438 31.9127 87.5129 33.8907 89.9108 33.8907C92.3094 33.8907 92.1785 31.9127 92.1785 31.718V19.138C92.1785 18.9433 92.3094 16.998 89.9108 16.998C87.5129 16.998 87.6438 18.9433 87.6438 19.138V31.718Z" fill="#A11A21"/>
<path d="M117.728 31.6853C117.728 32.7227 117.598 33.76 118.993 34.4087V39.3367H104.821V34.4087C106.216 33.76 106.085 32.7233 106.085 31.686V19.2027C106.085 18.1653 106.216 17.128 104.821 16.48V11.5506H120.999C123.877 11.5506 127.496 11.5193 130.025 12.6533C133.077 13.9826 134.124 16.3493 134.124 18.8786C134.124 21.9267 132.903 24.5847 128.542 25.3953V25.46C132.205 26.1087 133.426 27.276 133.426 30.0967V31.6853C133.426 32.6253 133.426 33.9873 134.865 34.408V39.3367H122.349C121.87 37.8127 121.565 36.5167 121.695 31.88C121.695 29.6747 121.39 28.5733 118.207 28.5073H117.727L117.728 31.6853ZM117.728 22.964H118.905C121.435 22.964 122.219 21.992 122.219 20.046C122.219 18.2626 121.435 17.29 118.905 17.29H117.728V22.964Z" fill="#A11A21"/>
<path d="M148.772 31.6853C148.772 32.7227 148.641 33.76 150.037 34.4087V39.3367H135.865V34.4087C137.26 33.76 137.129 32.7233 137.129 31.686V19.2027C137.129 18.1653 137.261 17.128 135.865 16.48V11.5506H152.043C154.921 11.5506 158.54 11.5193 161.069 12.6533C164.121 13.9826 165.167 16.3493 165.167 18.8786C165.167 21.9267 163.947 24.5847 159.585 25.3953V25.46C163.249 26.1087 164.469 27.276 164.469 30.0967V31.6853C164.469 32.6253 164.469 33.9873 165.909 34.408V39.3367H153.393C152.914 37.8127 152.609 36.5167 152.738 31.88C152.738 29.6747 152.434 28.5733 149.251 28.5073H148.771L148.772 31.6853ZM148.772 22.964H149.949C152.478 22.964 153.263 21.992 153.263 20.046C153.263 18.2626 152.478 17.29 149.949 17.29H148.772V22.964Z" fill="#A11A21"/>
<path d="M168.176 19.2027C168.176 18.1647 168.305 17.128 166.909 16.48V11.5507H181.081V16.48C179.687 17.128 179.818 18.1653 179.818 19.2027V31.6853C179.818 32.7227 179.687 33.76 181.081 34.4087V39.3367H166.909V34.4087C168.305 33.76 168.176 32.7233 168.176 31.686V19.2027Z" fill="#A11A21"/>
<path d="M210.076 29.286V39.3367H182.081V34.4087C183.475 33.76 183.346 32.7233 183.346 31.686V19.2027C183.346 18.1653 183.475 17.128 182.081 16.48V11.5507H210.076V20.9533H199.35V20.1107C199.35 18.23 199 17.452 195.862 17.452H195.165V22.4126H202.533V27.8273H195.165V33.436H195.862C199.35 33.436 199.306 32.464 199.35 30.194V29.286H210.076Z" fill="#A11A21"/>
<path d="M223.982 31.6853C223.982 32.7227 223.853 33.76 225.248 34.4087V39.3367H211.076V34.4087C212.47 33.76 212.339 32.7233 212.339 31.686V19.2027C212.339 18.1653 212.47 17.128 211.076 16.48V11.5506H227.253C230.131 11.5506 233.751 11.5193 236.279 12.6533C239.331 13.9826 240.378 16.3493 240.378 18.8786C240.378 21.9267 239.158 24.5847 234.795 25.3953V25.46C238.46 26.1087 239.68 27.276 239.68 30.0967V31.6853C239.68 32.6253 239.68 33.9873 241.121 34.408V39.3367H228.604C228.126 37.8127 227.821 36.5167 227.951 31.88C227.951 29.6747 227.646 28.5733 224.462 28.5073H223.982V31.6853ZM223.982 22.964H225.16C227.69 22.964 228.474 21.992 228.474 20.046C228.474 18.2626 227.688 17.29 225.16 17.29H223.982V22.964Z" fill="#A11A21"/>
<path d="M270.118 29.286V39.3367H242.121V34.4087C243.517 33.76 243.387 32.7233 243.387 31.686V19.2027C243.387 18.1653 243.517 17.128 242.121 16.48V11.5507H270.118V20.9533H259.391V20.1107C259.391 18.23 259.042 17.452 255.902 17.452H255.204V22.4126H262.573V27.8273H255.204V33.436H255.902C259.391 33.436 259.348 32.464 259.391 30.194V29.286H270.118Z" fill="#A11A21"/>
<path d="M86.8638 69.7867H74V64.858C75.2644 64.2094 75.3952 62.784 75.7442 61.7134L80.6715 42H97.2419L102.693 62.1354C102.911 63.01 103.347 64.566 104.655 64.858V69.7867H89.9597V64.858C90.8757 64.5987 91.312 64.0807 91.312 63.3347C91.312 63.0427 91.2247 62.784 91.1368 62.5247H85.5122C85.425 62.784 85.3384 63.0754 85.3384 63.3347C85.3384 64.112 85.8612 64.664 86.8645 64.858L86.8638 69.7867ZM90.0912 57.1114L88.1725 48.876H88.0853L86.2538 57.1114H90.0912Z" fill="#A11A21"/>
<path d="M106.074 69.7873V64.8586C107.469 64.21 107.339 63.1726 107.339 62.136V49.6526C107.339 48.6146 107.469 47.5773 106.074 46.9286V42H120.247V46.9286C118.851 47.5773 118.982 48.6146 118.982 49.6526V63.8873H120.115C123.08 63.8873 123.037 62.5566 123.037 60.8053V56.3H133.284V69.7866L106.074 69.7873Z" fill="#A11A21"/>
<path d="M146.939 69.7867H134.074V64.858C135.339 64.2094 135.47 62.784 135.818 61.7134L140.745 42H157.315L162.766 62.1354C162.983 63.01 163.421 64.566 164.728 64.858V69.7867H150.034V64.858C150.948 64.5987 151.385 64.0807 151.385 63.3347C151.385 63.0427 151.299 62.784 151.211 62.5247H145.586C145.498 62.784 145.41 63.0754 145.41 63.3347C145.41 64.112 145.934 64.664 146.937 64.858L146.939 69.7867ZM150.166 57.1114L148.248 48.876H148.161L146.329 57.1114H150.166Z" fill="#A11A21"/>
<path d="M166.074 69.7874V64.8587C167.382 64.4381 167.514 63.5954 167.556 62.6541V49.1334C167.514 48.1934 167.382 47.3507 166.074 46.9287V42.0001H182.994C185.916 42.0001 189.186 41.9667 191.715 43.1334C194.505 44.3974 195.421 46.7334 195.421 49.0361C195.421 52.2134 193.721 54.3854 189.535 55.2601V55.3254C194.331 55.7801 195.989 58.6327 195.989 61.8747C195.989 64.1441 195.29 66.6741 192.848 68.1327C190.189 69.7541 186.787 69.7861 183.517 69.7861H166.074V69.7874ZM179.199 52.7661H179.984C182.557 52.7661 183.865 52.3454 183.865 50.2701C183.865 48.2281 182.425 47.7741 179.984 47.7741H179.199V52.7661ZM179.199 64.0174H180.201C183.037 64.0174 184.04 63.1727 184.04 60.9694C184.04 58.8301 183.037 57.9861 180.201 57.9861H179.199V64.0174Z" fill="#A11A21"/>
<path d="M209.983 62.1368C209.983 63.1741 209.852 64.2108 211.248 64.8601V69.7888H197.074V64.8601C198.47 64.2108 198.34 63.1741 198.34 62.1368V49.6535C198.34 48.6148 198.47 47.5781 197.074 46.9295V42.0001H213.253C216.131 42.0001 219.751 41.9675 222.28 43.1028C225.332 44.4308 226.378 46.7995 226.378 49.3281C226.378 52.3761 225.157 55.0355 220.796 55.8448V55.9101C224.46 56.5588 225.679 57.7255 225.679 60.5468V62.1355C225.679 63.0755 225.679 64.4361 227.119 64.8581V69.7868H214.603C214.125 68.2641 213.818 66.9675 213.949 62.3295C213.949 60.1248 213.645 59.0221 210.461 58.9568H209.981L209.983 62.1368ZM209.983 53.4141H211.16C213.69 53.4141 214.474 52.4435 214.474 50.4975C214.474 48.7135 213.689 47.7408 211.16 47.7408H209.983V53.4141Z" fill="#A11A21"/>
<path d="M229.339 49.6534C229.339 48.6147 229.47 47.578 228.074 46.9294V42H242.246V46.9294C240.85 47.578 240.981 48.6147 240.981 49.6534V62.1367C240.981 63.174 240.85 64.2107 242.246 64.86V69.7887H228.074V64.86C229.47 64.2107 229.339 63.174 229.339 62.1367V49.6534Z" fill="#A11A21"/>
<path d="M255.939 69.7867H243.074V64.858C244.34 64.2094 244.469 62.784 244.82 61.7134L249.747 42H266.317L271.769 62.1354C271.986 63.01 272.423 64.566 273.731 64.858V69.7867H259.036V64.858C259.952 64.5987 260.387 64.0807 260.387 63.3347C260.387 63.0427 260.3 62.784 260.212 62.5247H254.587C254.5 62.784 254.413 63.0754 254.413 63.3347C254.413 64.112 254.937 64.664 255.939 64.858V69.7867ZM259.165 57.1114L257.246 48.876H257.159L255.328 57.1114H259.165Z" fill="#A11A21"/>
</svg>
